<svg xmlns="http://www.w3.org/2000/svg">
<!--! Font Awesome Pro 6.3.0 by @fontawesome - https://fontawesome.com License - https://fontawesome.com/license (Commercial License) Copyright 2023 Fonticons, Inc. -->
  <defs>
    <symbol id="align-left" viewBox="0 0 448 512">
      <path d="M288 64c0 17.7-14.3 32-32 32H32C14.3 96 0 81.7 0 64S14.3 32 32 32H256c17.7 0 32 14.3 32 32zm0 256c0 17.7-14.3 32-32 32H32c-17.7 0-32-14.3-32-32s14.3-32 32-32H256c17.7 0 32 14.3 32 32zM0 192c0-17.7 14.3-32 32-32H416c17.7 0 32 14.3 32 32s-14.3 32-32 32H32c-17.7 0-32-14.3-32-32zM448 448c0 17.7-14.3 32-32 32H32c-17.7 0-32-14.3-32-32s14.3-32 32-32H416c17.7 0 32 14.3 32 32z" />
    </symbol>
    <symbol id="copy" viewBox="0 0 512 512">
      <path d="M224 0c-35.3 0-64 28.7-64 64V288c0 35.3 28.7 64 64 64H448c35.3 0 64-28.7 64-64V64c0-35.3-28.7-64-64-64H224zM64 160c-35.3 0-64 28.7-64 64V448c0 35.3 28.7 64 64 64H288c35.3 0 64-28.7 64-64V384H288v64H64V224h64V160H64z" />
    </symbol>
    <symbol id="file-download" viewBox="0 0 384 512">
      <path d="M64 0C28.7 0 0 28.7 0 64V448c0 35.3 28.7 64 64 64H320c35.3 0 64-28.7 64-64V160H256c-17.7 0-32-14.3-32-32V0H64zM256 0V128H384L256 0zM216 232V334.1l31-31c9.4-9.4 24.6-9.4 33.9 0s9.4 24.6 0 33.9l-72 72c-9.4 9.4-24.6 9.4-33.9 0l-72-72c-9.4-9.4-9.4-24.6 0-33.9s24.6-9.4 33.9 0l31 31V232c0-13.3 10.7-24 24-24s24 10.7 24 24z" />
    </symbol>
    <symbol id="file-upload" viewBox="0 0 384 512">
      <path d="M64 0C28.7 0 0 28.7 0 64V448c0 35.3 28.7 64 64 64H320c35.3 0 64-28.7 64-64V160H256c-17.7 0-32-14.3-32-32V0H64zM256 0V128H384L256 0zM216 408c0 13.3-10.7 24-24 24s-24-10.7-24-24V305.9l-31 31c-9.4 9.4-24.6 9.4-33.9 0s-9.4-24.6 0-33.9l72-72c9.4-9.4 24.6-9.4 33.9 0l72 72c9.4 9.4 9.4 24.6 0 33.9s-24.6 9.4-33.9 0l-31-31V408z" />
    </symbol>
    <symbol id="gear" viewBox="0 0 256 256">
      <path d="M128,80a48,48,0,1,0,48,48A48.05,48.05,0,0,0,128,80Zm0,80a32,32,0,1,1,32-32A32,32,0,0,1,128,160Zm109.94-52.79a8,8,0,0,0-3.89-5.4l-29.83-17-.12-33.62a8,8,0,0,0-2.83-6.08,111.91,111.91,0,0,0-36.72-20.67,8,8,0,0,0-6.46.59L128,41.85,97.88,25a8,8,0,0,0-6.47-.6A112.1,112.1,0,0,0,54.73,45.15a8,8,0,0,0-2.83,6.07l-.15,33.65-29.83,17a8,8,0,0,0-3.89,5.4,106.47,106.47,0,0,0,0,41.56,8,8,0,0,0,3.89,5.4l29.83,17,.12,33.62a8,8,0,0,0,2.83,6.08,111.91,111.91,0,0,0,36.72,20.67,8,8,0,0,0,6.46-.59L128,214.15,158.12,231a7.91,7.91,0,0,0,3.9,1,8.09,8.09,0,0,0,2.57-.42,112.1,112.1,0,0,0,36.68-20.73,8,8,0,0,0,2.83-6.07l.15-33.65,29.83-17a8,8,0,0,0,3.89-5.4A106.47,106.47,0,0,0,237.94,107.21Zm-15,34.91-28.57,16.25a8,8,0,0,0-3,3c-.58,1-1.19,2.06-1.81,3.06a7.94,7.94,0,0,0-1.22,4.21l-.15,32.25a95.89,95.89,0,0,1-25.37,14.3L134,199.13a8,8,0,0,0-3.91-1h-.19c-1.21,0-2.43,0-3.64,0a8.08,8.08,0,0,0-4.1,1l-28.84,16.1A96,96,0,0,1,67.88,201l-.11-32.2a8,8,0,0,0-1.22-4.22c-.62-1-1.23-2-1.8-3.06a8.09,8.09,0,0,0-3-3.06l-28.6-16.29a90.49,90.49,0,0,1,0-28.26L61.67,97.63a8,8,0,0,0,3-3c.58-1,1.19-2.06,1.81-3.06a7.94,7.94,0,0,0,1.22-4.21l.15-32.25a95.89,95.89,0,0,1,25.37-14.3L122,56.87a8,8,0,0,0,4.1,1c1.21,0,2.43,0,3.64,0a8.08,8.08,0,0,0,4.1-1l28.84-16.1A96,96,0,0,1,188.12,55l.11,32.2a8,8,0,0,0,1.22,4.22c.62,1,1.23,2,1.8,3.06a8.09,8.09,0,0,0,3,3.06l28.6,16.29A90.49,90.49,0,0,1,222.9,142.12Z" />
    </symbol>
    <symbol id="gear-2" viewBox="0 0 512 512">
      <path d="M481.9 166.6c3.2 8.7 .5 18.4-6.4 24.6l-30.9 28.1c-7.7 7.1-11.4 17.5-10.9 27.9c.1 2.9 .2 5.8 .2 8.8s-.1 5.9-.2 8.8c-.5 10.5 3.1 20.9 10.9 27.9l30.9 28.1c6.9 6.2 9.6 15.9 6.4 24.6c-4.4 11.9-9.7 23.3-15.8 34.3l-4.7 8.1c-6.6 11-14 21.4-22.1 31.2c-5.9 7.2-15.7 9.6-24.5 6.8l-39.7-12.6c-10-3.2-20.8-1.1-29.7 4.6c-4.9 3.1-9.9 6.1-15.1 8.7c-9.3 4.8-16.5 13.2-18.8 23.4l-8.9 40.7c-2 9.1-9 16.3-18.2 17.8c-13.8 2.3-28 3.5-42.5 3.5s-28.7-1.2-42.5-3.5c-9.2-1.5-16.2-8.7-18.2-17.8l-8.9-40.7c-2.2-10.2-9.5-18.6-18.8-23.4c-5.2-2.7-10.2-5.6-15.1-8.7c-8.8-5.7-19.7-7.8-29.7-4.6L69.1 425.9c-8.8 2.8-18.6 .3-24.5-6.8c-8.1-9.8-15.5-20.2-22.1-31.2l-4.7-8.1c-6.1-11-11.4-22.4-15.8-34.3c-3.2-8.7-.5-18.4 6.4-24.6l30.9-28.1c7.7-7.1 11.4-17.5 10.9-27.9c-.1-2.9-.2-5.8-.2-8.8s.1-5.9 .2-8.8c.5-10.5-3.1-20.9-10.9-27.9L8.4 191.2c-6.9-6.2-9.6-15.9-6.4-24.6c4.4-11.9 9.7-23.3 15.8-34.3l4.7-8.1c6.6-11 14-21.4 22.1-31.2c5.9-7.2 15.7-9.6 24.5-6.8l39.7 12.6c10 3.2 20.8 1.1 29.7-4.6c4.9-3.1 9.9-6.1 15.1-8.7c9.3-4.8 16.5-13.2 18.8-23.4l8.9-40.7c2-9.1 9-16.3 18.2-17.8C213.3 1.2 227.5 0 242 0s28.7 1.2 42.5 3.5c9.2 1.5 16.2 8.7 18.2 17.8l8.9 40.7c2.2 10.2 9.4 18.6 18.8 23.4c5.2 2.7 10.2 5.6 15.1 8.7c8.8 5.7 19.7 7.7 29.7 4.6l39.7-12.6c8.8-2.8 18.6-.3 24.5 6.8c8.1 9.8 15.5 20.2 22.1 31.2l4.7 8.1c6.1 11 11.4 22.4 15.8 34.3zM242 336a80 80 0 1 0 0-160 80 80 0 1 0 0 160z" />
    </symbol>
  </defs>
</svg>


